<svg width="26" height="26" viewBox="0 0 26 26" xmlns="http://www.w3.org/2000/svg"><title>Page 1</title><path d="M9.565 20.567L8.243 21.89c-1.144 1.14-3.01 1.14-4.155 0-.55-.55-.85-1.28-.85-2.058 0-.777.303-1.505.85-2.057l4.865-4.855c1.008-1.007 2.905-2.49 4.287-1.11.636.636 1.66.632 2.29-.007.63-.64.626-1.67-.01-2.303-2.346-2.346-5.82-1.913-8.846 1.11L1.81 15.464C.64 16.63 0 18.183 0 19.832c0 1.653.643 3.202 1.81 4.367 1.2 1.2 2.778 1.8 4.356 1.8 1.58 0 3.158-.6 4.358-1.8l1.324-1.323c.635-.633.638-1.663.008-2.3-.632-.638-1.655-.64-2.29-.01zM24.19 1.952c-2.526-2.477-6.055-2.61-8.39-.318l-1.647 1.618c-.635.623-.64 1.636-.01 2.263.63.628 1.654.63 2.29.008l1.648-1.617c1.21-1.188 2.794-.696 3.83.318.55.54.853 1.258.853 2.022 0 .764-.304 1.48-.852 2.02l-5.19 5.094c-2.374 2.327-3.488 1.237-3.963.77-.635-.623-1.658-.618-2.287.01-.63.627-.627 1.64.01 2.26 1.09 1.07 2.333 1.6 3.636 1.6 1.595 0 3.28-.795 4.886-2.37l5.19-5.09C25.356 9.39 26 7.867 26 6.245c0-1.623-.645-3.147-1.81-4.294z" fill="#000" fill-rule="evenodd"/></svg>