<svg width="12" height="12" viewBox="0 0 12 12" xmlns="http://www.w3.org/2000/svg"><title>Page 1</title><path d="M8 5a2.89 2.89 0 0 0-.88-2.12A2.89 2.89 0 0 0 5 2a2.89 2.89 0 0 0-2.12.88A2.89 2.89 0 0 0 2 5c0 .826.294 1.532.88 2.12A2.89 2.89 0 0 0 5 8a2.89 2.89 0 0 0 2.12-.88A2.89 2.89 0 0 0 8 5zm4 6.077c0 .25-.091.466-.274.649a.887.887 0 0 1-.65.274.857.857 0 0 1-.648-.274L7.954 9.26c-.86.596-1.82.894-2.877.894a4.989 4.989 0 0 1-1.972-.4 5.076 5.076 0 0 1-1.623-1.082A5.076 5.076 0 0 1 .4 7.049 4.989 4.989 0 0 1 0 5.077c0-.688.133-1.345.4-1.972a5.076 5.076 0 0 1 1.082-1.623A5.076 5.076 0 0 1 3.105.4 4.989 4.989 0 0 1 5.077 0c.687 0 1.345.133 1.972.4a5.076 5.076 0 0 1 1.623 1.082c.454.454.815.995 1.082 1.623.266.627.4 1.284.4 1.972a4.938 4.938 0 0 1-.894 2.877l2.473 2.474a.883.883 0 0 1 .267.649z" fill="#000" fill-rule="evenodd"/></svg>