<?xml version="1.0" encoding="UTF-8" standalone="no"?>
<svg width="38px" height="50px" viewBox="0 0 38 50" version="1.1" xmlns="http://www.w3.org/2000/svg" xmlns:xlink="http://www.w3.org/1999/xlink" xmlns:sketch="http://www.bohemiancoding.com/sketch/ns">
    <!-- Generator: Sketch 3.3 (11970) - http://www.bohemiancoding.com/sketch -->
    <title>Expanded</title>
    <desc>Created with Sketch.</desc>
    <defs></defs>
    <g id="Page-1" stroke="none" stroke-width="1" fill="none" fill-rule="evenodd" sketch:type="MSPage">
        <g id="Expanded" sketch:type="MSLayerGroup" transform="translate(1.000000, 1.000000)" stroke-width="2" stroke="#939393" fill="#9C9C9C">
            <g id="Group" sketch:type="MSShapeGroup">
                <circle id="Oval" cx="18" cy="30" r="2"></circle>
                <path d="M18,38 C17.447,38 17,37.553 17,37 L17,31 C17,30.447 17.447,30 18,30 C18.553,30 19,30.447 19,31 L19,37 C19,37.553 18.553,38 18,38 L18,38 Z" id="Shape"></path>
                <path d="M36,48 L0,48 L0,18 L36,18 L36,48 L36,48 Z M2,46 L34,46 L34,20 L2,20 L2,46 L2,46 Z" id="Shape"></path>
                <path d="M30,19 L28,19 L28,12 C28,6.486 23.514,2 18,2 C12.486,2 8,6.486 8,12 L8,19 L6,19 L6,12 C6,5.383 11.383,0 18,0 C24.617,0 30,5.383 30,12 L30,19 L30,19 Z" id="Shape"></path>
            </g>
        </g>
    </g>
</svg>